static_grf.mot
version=1
nRows=11
nColumns 19
inDegrees=yes
endheader
time	1_ground_force_vx	1_ground_force_vy	1_ground_force_vz	1_ground_force_px	1_ground_force_py	1_ground_force_pz	1_ground_torque_x	1_ground_torque_y	1_ground_torque_z	2_ground_force_vx	2_ground_force_vy	2_ground_force_vz	2_ground_force_px	2_ground_force_py	2_ground_force_pz	2_ground_torque_x	2_ground_torque_y	2_ground_torque_z
            0.005000	           -4.484041	          302.432124	          -28.407564	           -0.342048	            0.006194	           -0.403132	           -0.010876	            0.733555	           -0.068903	            0.471940	          313.700434	           27.492545	           -0.332639	            0.005335	           -0.712396	            0.000007	            0.004728	            0.000414
            0.005500	           -4.438066	          301.711070	          -28.410770	           -0.342212	            0.006196	           -0.403676	           -0.012015	            0.816839	           -0.076918	            0.664095	          312.411228	           27.722507	           -0.333267	            0.005330	           -0.711537	           -0.000207	           -0.097551	           -0.008656
            0.006000	           -4.437644	          301.890519	          -28.226574	           -0.342225	            0.006194	           -0.403124	           -0.011347	            0.771915	           -0.072174	            0.568340	          312.963875	           27.583733	           -0.332988	            0.005333	           -0.711991	           -0.000047	           -0.025946	           -0.002287
            0.006500	           -4.484332	          301.531552	          -28.594853	           -0.342413	            0.006196	           -0.403728	           -0.011879	            0.798754	           -0.075748	            0.565640	          313.700772	           27.492505	           -0.332522	            0.005336	           -0.712456	            0.000028	            0.015465	            0.001355
            0.007000	           -4.621879	          302.252391	          -28.545564	           -0.342253	            0.006195	           -0.403365	           -0.011352	            0.742402	           -0.070114	            0.569607	          312.596035	           27.441635	           -0.333281	            0.005332	           -0.712029	           -0.000087	           -0.047784	           -0.004195
            0.007500	           -4.484560	          301.531945	          -28.686565	           -0.341966	            0.006195	           -0.403432	           -0.012261	            0.824416	           -0.078432	            0.332220	          313.514447	           27.867373	           -0.332682	            0.005335	           -0.712266	           -0.000058	           -0.055044	           -0.004893
            0.008000	           -4.713400	          301.351076	          -28.549201	           -0.341831	            0.006196	           -0.403689	           -0.012190	            0.779389	           -0.073837	            0.425070	          313.700432	           27.445637	           -0.332635	            0.005335	           -0.712396	           -0.000018	           -0.013108	           -0.001147
            0.008500	           -4.896757	          301.891610	          -28.500571	           -0.341809	            0.006195	           -0.403413	           -0.011530	            0.710811	           -0.067105	            0.333967	          312.964033	           27.302264	           -0.332833	            0.005333	           -0.711870	            0.000077	            0.072555	            0.006330
            0.009000	           -4.576182	          302.432893	          -28.590761	           -0.342159	            0.006194	           -0.403162	           -0.012223	            0.807817	           -0.076368	            0.380337	          313.146837	           27.725254	           -0.333043	            0.005333	           -0.712243	           -0.000057	           -0.046783	           -0.004142
            0.009500	           -4.804843	          301.891235	          -28.409087	           -0.342159	            0.006194	           -0.403162	           -0.011598	            0.728717	           -0.068575	            0.425714	          313.516459	           27.398052	           -0.333043	            0.005333	           -0.712243	            0.000042	            0.030592	            0.002673
            0.010000	           -4.622157	          303.153947	          -28.587555	           -0.342159	            0.006194	           -0.403162	           -0.012360	            0.810630	           -0.076443	            0.803192	          312.781021	           27.442192	           -0.333043	            0.005333	           -0.712243	           -0.000233	           -0.090724	           -0.007960
